<!DOCTYPE svg PUBLIC "-//W3C//DTD SVG 1.1//EN" "http://www.w3.org/Graphics/SVG/1.1/DTD/svg11.dtd">
<!-- Uploaded to: SVG Repo, www.svgrepo.com, Transformed by: SVG Repo Mixer Tools -->
<svg fill="#000" height="800px" width="800px" version="1.1" id="Layer_1" xmlns="http://www.w3.org/2000/svg" xmlns:xlink="http://www.w3.org/1999/xlink" viewBox="0 0 512 512" xml:space="preserve" stroke="#000">
<g id="SVGRepo_bgCarrier" stroke-width="0"/>
<g id="SVGRepo_tracerCarrier" stroke-linecap="round" stroke-linejoin="round"/>
<g id="SVGRepo_iconCarrier"> <g> <g> <path d="M435.638,456.681c-13.81-34.587-37.091-64.145-67.447-85.795c0.109-2.4,0.142-4.44,0.142-5.95 c0-10.301-1.407-44.781-19.513-55.971c-9.292-5.742-23.335-3.49-42.936,6.887c-12.503,6.619-25.451,15.562-35.344,22.905 c-4.31-2.403-9.266-3.778-14.54-3.778c-4.626,0-9.01,1.056-12.925,2.936c-9.851-7.258-22.809-16.137-35.233-22.601 c-19.065-9.919-32.776-11.995-41.91-6.349c-18.105,11.19-19.513,45.67-19.513,55.971c0,1.09,0.017,2.466,0.068,4.043 c-31.681,21.786-55.877,52.016-70.124,87.702c-1.673,4.191,0.367,8.944,4.559,10.617c0.993,0.397,2.019,0.585,3.026,0.585 c3.245,0,6.314-1.946,7.591-5.143c11.92-29.855,31.45-55.54,56.865-74.971c2.294,12.747,7.183,26.745,17.529,33.138 c3.331,2.059,7.268,3.091,11.852,3.091c1.906,0,3.928-0.184,6.06-0.541v36.255c0,4.512,3.658,8.17,8.17,8.17 c4.512,0,8.17-3.658,8.17-8.17v-41.47c2.452-1.078,4.999-2.3,7.657-3.682c12.424-6.463,25.382-15.341,35.233-22.601 c3.915,1.88,8.3,2.936,12.925,2.936c5.274,0,10.231-1.375,14.54-3.778c9.894,7.343,22.843,16.286,35.344,22.904 c3.027,1.602,5.919,3.007,8.683,4.221v41.469c0,4.512,3.658,8.17,8.17,8.17s8.17-3.658,8.17-8.17v-36.26 c2.134,0.357,4.158,0.545,6.066,0.545c4.582,0,8.52-1.032,11.847-3.087c9.842-6.083,14.745-19.047,17.174-31.271 c24.253,19.219,42.952,44.261,54.468,73.104c1.277,3.197,4.345,5.143,7.591,5.143c1.008,0,2.034-0.187,3.026-0.585 C435.27,465.624,437.311,460.871,435.638,456.681z M230.622,380.824c-35.621,25.823-52.217,28.581-56.1,26.183 c-5.133-3.172-10.32-15.599-11.508-34.05c-0.005-0.192-0.014-0.383-0.033-0.575c-0.142-2.387-0.221-4.867-0.221-7.446 c0-22.847,5.917-38.459,11.763-42.071c3.886-2.399,20.478,0.359,56.099,26.183c-2.897,4.609-4.579,10.055-4.579,15.888 C226.044,370.769,227.726,376.215,230.622,380.824z M265.347,374.812c-0.025,0.022-0.05,0.046-0.075,0.069 c-2.434,2.27-5.689,3.672-9.272,3.672c-3.231,0-6.198-1.136-8.536-3.023c-0.042-0.032-0.084-0.065-0.126-0.096 c-3.024-2.5-4.954-6.278-4.954-10.498c0-4.222,1.931-8.002,4.958-10.501c0.034-0.024,0.066-0.051,0.1-0.075 c2.341-1.898,5.317-3.04,8.559-3.04c3.575,0,6.823,1.396,9.255,3.657c0.034,0.029,0.065,0.061,0.099,0.09 c2.619,2.484,4.263,5.985,4.263,9.87C269.617,368.825,267.97,372.328,265.347,374.812z M351.663,373.981 c-0.024,0.206-0.037,0.412-0.046,0.618c-1.382,17.545-6.41,29.331-11.388,32.409c-3.99,2.464-21.137-0.489-58.019-27.585 c2.385-4.296,3.747-9.234,3.747-14.487s-1.363-10.19-3.747-14.487c36.883-27.096,54.031-30.048,58.019-27.585 c5.846,3.612,11.762,19.224,11.762,42.071C351.991,368.094,351.875,371.11,351.663,373.981z"/> </g> </g> <g> <g> <path d="M481.2,137.969c-7.108-17.003-24.004-28.489-42.732-28.489c-2.865,0-5.701,0.26-8.485,0.777 c-8.772-17.02-26.406-28.011-45.983-28.011c-11.492,0-22.366,3.702-31.317,10.553c-8.955-6.851-19.831-10.553-31.321-10.553 c-7.389,0-14.692,1.614-21.387,4.656c-1.035-0.503-2.08-0.99-3.136-1.46c0.002-0.158,0.012-0.315,0.012-0.474 c0-22.526-18.325-40.851-40.851-40.851s-40.851,18.325-40.851,40.851c0,0.159,0.01,0.315,0.012,0.474 c-1.056,0.469-2.101,0.956-3.135,1.46c-6.695-3.042-13.998-4.656-21.387-4.656c-11.492,0-22.367,3.702-31.321,10.553 c-8.951-6.851-19.825-10.553-31.317-10.553c-19.577,0-37.213,10.991-45.983,28.011c-2.784-0.517-5.619-0.777-8.485-0.777 c-18.727,0-35.623,11.486-42.732,28.489C12.92,142.484,0,158.676,0,177.565c0,17.779,11.281,33.122,27.619,38.66 c2.941,22.715,22.41,40.318,45.913,40.318c2.865,0,5.701-0.26,8.485-0.777c8.772,17.02,26.406,28.011,45.983,28.011 c11.492,0,22.367-3.703,31.318-10.554c8.009,6.124,17.563,9.723,27.716,10.417c18.04,16.962,42.31,27.371,68.966,27.371 s50.927-10.409,68.966-27.371c10.153-0.693,19.707-4.292,27.716-10.417c8.951,6.851,19.826,10.554,31.318,10.554 c19.577,0,37.213-10.991,45.983-28.011c2.784,0.517,5.619,0.777,8.485,0.777c23.503,0,42.972-17.603,45.913-40.318 c16.337-5.539,27.619-20.881,27.619-38.66C512,158.676,499.08,142.484,481.2,137.969z M256,60.459 c13.516,0,24.511,10.995,24.511,24.511c0,13.516-10.995,24.511-24.511,24.511c-13.516,0-24.511-10.995-24.511-24.511 C231.489,71.454,242.484,60.459,256,60.459z M165.191,256.629c-1.541-1.592-3.661-2.49-5.876-2.49c-2.216,0-4.336,0.9-5.875,2.494 c-6.733,6.968-15.767,10.805-25.44,10.805c-15.181,0-28.656-9.659-33.528-24.037c-0.708-2.088-2.229-3.802-4.22-4.751 c-1.989-0.95-4.278-1.053-6.348-0.291c-3.315,1.224-6.805,1.844-10.373,1.844c-16.519,0-29.957-13.438-29.956-29.927l0.01-0.376 c0.056-4.034-2.841-7.505-6.82-8.171c-11.834-1.982-20.423-12.144-20.423-24.164c0-12.395,9.266-22.853,21.555-24.325 c3.254-0.39,5.96-2.686,6.874-5.834c3.692-12.71,15.52-21.586,28.763-21.586c3.568,0,7.058,0.621,10.373,1.844 c2.069,0.764,4.359,0.658,6.348-0.291c1.99-0.95,3.512-2.663,4.22-4.751c4.873-14.377,18.347-24.037,33.528-24.037 c9.672,0,18.707,3.838,25.44,10.805c1.539,1.593,3.659,2.492,5.875,2.494c0,0,0,0,0.001,0c2.215,0,4.335-0.9,5.874-2.491 c6.738-6.969,15.775-10.808,25.449-10.808c0.902,0,1.801,0.046,2.697,0.114c-20.809,16.619-34.583,41.13-37.515,68.068 c-11.431-1.779-22.664,1.678-30.06,9.8c-12.759,14.017-10.13,37.264,5.861,51.82c7.928,7.217,18.725,10.546,27.936,11.068 c2.101,6.924,4.93,13.535,8.396,19.744C166.997,258.396,166.073,257.542,165.191,256.629z M340.427,210.246 c0,46.552-37.874,84.426-84.426,84.426s-84.427-37.874-84.427-84.426c0-4.512-3.658-8.17-8.17-8.17c-4.512,0-8.17,3.658-8.17,8.17 c0,4.166,0.259,8.273,0.753,12.308c-4.802-0.96-9.804-3.006-13.367-6.249c-9.328-8.49-11.471-21.382-4.777-28.736 c4.944-5.428,13.823-6.475,22.098-2.604c2.531,1.184,5.491,0.992,7.848-0.507c2.357-1.499,3.786-4.099,3.786-6.893 c0-32.266,18.663-61.713,47.212-75.778c6.424,14.157,20.683,24.033,37.214,24.033s30.79-9.876,37.214-24.033 c28.549,14.064,47.212,43.511,47.212,75.778c0,2.794,1.428,5.395,3.786,6.893c2.356,1.499,5.316,1.691,7.848,0.507 c8.274-3.872,17.155-2.826,22.098,2.604c6.694,7.353,4.551,20.245-4.776,28.736c-3.562,3.243-8.566,5.288-13.366,6.247 c0.494-4.035,0.753-8.141,0.753-12.307c0-4.512-3.658-8.17-8.17-8.17S340.427,205.734,340.427,210.246z M475.234,201.73 c-3.979,0.667-6.876,4.137-6.82,8.171l0.011,0.345c0,16.519-13.438,29.957-29.957,29.957c-3.568,0-7.058-0.621-10.373-1.844 c-2.069-0.764-4.357-0.658-6.348,0.291c-1.99,0.95-3.512,2.663-4.22,4.751c-4.873,14.377-18.347,24.037-33.528,24.037 c-9.672,0-18.706-3.838-25.44-10.805c-1.539-1.593-3.659-2.492-5.875-2.494c0,0,0,0-0.001,0c-2.215,0-4.335,0.899-5.874,2.491 c-0.882,0.912-1.806,1.767-2.764,2.571c3.466-6.209,6.294-12.82,8.396-19.745c9.212-0.522,20.008-3.851,27.937-11.068 c15.991-14.557,18.619-37.803,5.86-51.82c-7.396-8.123-18.628-11.577-30.059-9.8c-2.932-26.939-16.706-51.448-37.515-68.068 c0.897-0.069,1.795-0.114,2.697-0.114c9.674,0,18.711,3.838,25.449,10.808c1.54,1.593,3.66,2.492,5.875,2.491 c2.216,0,4.336-0.9,5.875-2.494c6.733-6.968,15.767-10.805,25.44-10.805c15.181,0,28.656,9.659,33.528,24.037 c0.708,2.088,2.229,3.802,4.22,4.751c1.99,0.949,4.279,1.053,6.348,0.291c3.315-1.224,6.805-1.844,10.373-1.844 c13.243,0,25.072,8.876,28.762,21.586c0.914,3.147,3.62,5.444,6.874,5.834c12.288,1.473,21.555,11.931,21.555,24.325 C495.66,189.585,487.07,199.748,475.234,201.73z"/> </g> </g> <g> <g> <path d="M227.248,180.289h-1.362v-1.362c0-4.512-3.658-8.17-8.17-8.17s-8.17,3.658-8.17,8.17v1.362h-1.362 c-4.512,0-8.17,3.658-8.17,8.17s3.658,8.17,8.17,8.17h1.362v1.362c0,4.512,3.658,8.17,8.17,8.17s8.17-3.658,8.17-8.17v-1.362 h1.362c4.512,0,8.17-3.658,8.17-8.17S231.761,180.289,227.248,180.289z"/> </g> </g> <g> <g> <path d="M303.815,180.289h-1.362v-1.362c0-4.512-3.658-8.17-8.17-8.17s-8.17,3.658-8.17,8.17v1.362h-1.362 c-4.512,0-8.17,3.658-8.17,8.17s3.658,8.17,8.17,8.17h1.362v1.362c0,4.512,3.658,8.17,8.17,8.17s8.17-3.658,8.17-8.17v-1.362 h1.362c4.512,0,8.17-3.658,8.17-8.17S308.328,180.289,303.815,180.289z"/> </g> </g> <g> <g> <path d="M256,202.076c-16.519,0-29.957,13.438-29.957,29.957s13.438,29.957,29.957,29.957s29.957-13.438,29.957-29.957 S272.519,202.076,256,202.076z M256,245.65c-7.509,0-13.617-6.108-13.617-13.617s6.108-13.617,13.617-13.617 c7.509,0,13.617,6.108,13.617,13.617S263.509,245.65,256,245.65z"/> </g> </g> </g>
</svg>